#!OML:ASF F:\VICON\USERDATA\INSTALL\rory3\rory3.ASF
:FULLY-SPECIFIED
:DEGREES
161
root 1.2351154329038612 17.949708712597864 47.1421379067862 -2.7785153733153405 -1.0584801697006334 -2.339214810187407
lfemur 6.084093443965676 -2.270158635158514 -18.84830139490704
ltibia 50.710536089614436
lfoot -17.900667377882627 -1.4784054653415661
ltoes -18.46159302173964
rfemur -15.151269130733812 2.9261154317054685 26.834108936053827
rtibia 18.208294443009226
rfoot -0.14754605041352598 -7.347482088256555
rtoes 7.388081980832516
lowerback 10.243965759880783 -1.5208814358781004 -0.05077068482637448
upperback -0.2985717997997379 -1.944976578304057 2.4725644255362904
thorax -6.179486210842804 -0.9326816097532098 3.7690295142677397
lowerneck -16.683292218991078 -3.260071159901266 -1.600589122376042
upperneck 21.69804714960037 -4.335404209162645 0.7855196639421377
head 9.707654606986198 -2.058900564450485 -0.021260669812893235
lclavicle -2.7003079518492093e-15 -2.1517147062704806e-15
lhumerus -30.049002994305436 3.279881440346592 82.07440070959247
lradius 23.63133163372043
lwrist 11.305289597457056
lhand -29.155529779688045 18.199700165922092
lfingers 7.125020000000001
lthumb -2.32476276260406 48.84436786127964
rclavicle -2.700307951751418e-15 -2.151714706203321e-15
rhumerus -32.53055019949234 -21.143738773471174 -76.74178794238797
rradius 25.953295097745148
rwrist 4.084185171600446
rhand -18.04165083750706 22.351034354824115
rfingers 7.125020000000001
rthumb 8.439798658523994 -6.268518586837755
162
root 1.238416239584683 17.963388137481886 46.77027605639172 -2.7169776233022365 -1.0679842575669989 -2.6198625148951025
lfemur 5.722371760471111 -2.241587593293702 -18.48031978473756
ltibia 51.195189306786475
lfoot -17.585632027700516 -1.5183937033067523
ltoes -17.641068235496597
rfemur -14.29627677486257 2.9833118335263995 27.156257907528907
rtibia 17.501060166489417
rfoot -0.2069998153025363 -7.233959992955824
rtoes 6.323828046178709
lowerback 10.254494489534352 -1.454613529213259 0.2012630652410906
upperback -0.34663488265677533 -1.7440084203215769 2.5315364926150874
thorax -6.183762181747957 -0.8266599973855588 3.740784614840457
lowerneck -16.586255146909018 -3.2532979463637237 -1.6079999246313887
upperneck 21.84342298404496 -4.31535636209178 0.6812068267940249
head 9.75001988371415 -2.0539715082541945 -0.04768272873226595
lclavicle -2.7003079518524334e-15 -2.1517147062728077e-15
lhumerus -30.191067062130436 3.5775079473744813 82.15552397433038
lradius 23.6925170624
lwrist 11.516916565352467
lhand -29.038763461448994 17.972086859530105
lfingers 7.125020000000001
lthumb -2.1724167157179046 48.564448922490904
rclavicle -2.7003079517512975e-15 -2.15171470620341e-15
rhumerus -32.51866952725765 -21.101592856886235 -76.61407065620381
rradius 25.97860612534818
rwrist 4.3319654254721325
rhand -18.042687182263332 22.484750156532545
rfingers 7.125020000000001
rthumb 8.301538556803461 -6.031781068115737
163
root 1.237121249799686 17.987148261839046 46.06605129655787 -2.4906096629620333 -0.9787429544692395 -3.1592988449229065
lfemur 5.154616494981866 -2.232756090229404 -17.94878803320257
ltibia 51.828733598996195
lfoot -17.474885897817597 -1.638222529937221
ltoes -18.680202608662633
rfemur -13.38142606443321 3.07955745608485 27.640290994689796
rtibia 16.35282077588714
rfoot -0.23016108550025915 -7.218404282312136
rtoes 4.858353323997493
lowerback 10.18184902013353 -1.3360395328498254 0.8204990249010401
upperback -0.34756110917781086 -1.531277218475893 2.5896159333391093
thorax -6.179615318689882 -0.7304115433852253 3.64130965855854
lowerneck -16.59663258955109 -3.2564519581948064 -1.6041929041120258
upperneck 21.98680378167602 -4.337470941632703 0.5966838047228623
head 9.832637665740986 -2.060980190689036 -0.08692138289320925
lclavicle -2.700307951848082e-15 -2.1517147062700274e-15
lhumerus -30.38241181796929 3.8318591806209286 82.15440559695998
lradius 23.83118646453738
lwrist 11.602040213253431
lhand -28.77824844782157 17.999215721923896
lfingers 7.125020000000001
lthumb -1.7845995036952063 48.720188434315574
rclavicle -2.7003079517430934e-15 -2.151714706197933e-15
rhumerus -32.7183258783066 -21.02985950976529 -76.43767841374465
rradius 26.00820597118446
rwrist 4.3050364908367795
rhand -18.083968843101452 22.529458843543892
rfingers 7.125020000000001
rthumb 8.114899185536672 -5.909255301733874
164
root 1.2514687033154845 17.992917323367973 45.76110705552614 -2.5809923280181057 -0.9917018139739119 -3.173256391302964
lfemur 4.9594068493617804 -2.2750126234619983 -17.928581215952914
ltibia 52.392951427624304
lfoot -17.113102446342946 -1.7694631481032679
ltoes -18.99862361757022
rfemur -12.651862316750018 3.121433999849164 27.698492302691577
rtibia 15.637976053572348
rfoot -0.07713136285593958 -7.177478833638036
rtoes 3.860717251462921
lowerback 10.116528316814106 -1.220550070577262 0.9985425566950112
upperback -0.36152729893588226 -1.3236680779797731 2.5959431443123995
thorax -6.175521006900369 -0.6572752090555103 3.479961854738035
lowerneck -16.624288325877565 -3.267438246202011 -1.5997813880551377
upperneck 22.056270927701785 -4.362170753998107 0.5659293796388125
head 9.897198722789703 -2.068676115527096 -0.11287173212719112
lclavicle -2.7003079518483743e-15 -2.1517147062704088e-15
lhumerus -30.48470589150252 4.09442214917848 82.07207490252343
lradius 23.899875394118414
lwrist 11.871770741374199
lhand -28.913915205891524 17.85418954386097
lfingers 7.125020000000001
lthumb -1.9314678311785547 48.46986385878539
rclavicle -2.700307951760262e-15 -2.151714706209759e-15
rhumerus -32.96861043366942 -20.970452677643276 -76.17282716431365
rradius 26.065380545123944
rwrist 4.105805621021918
rhand -18.022032637006706 22.722196050216496
rfingers 7.125020000000001
rthumb 8.112729941876482 -5.410355096900439
165
root 1.2537254127406965 17.987867633956135 45.70146784481258 -2.7680724679457462 -0.9685803691600846 -2.9102846982214103
lfemur 5.0876472169394305 -2.386501455499096 -18.33968951534636
ltibia 52.63389791545872
lfoot -17.021807895701976 -2.11160812810688
ltoes -19.72892029107038
rfemur -12.132533547570754 3.0616541028190234 27.489412495645333
rtibia 15.575944414244038
rfoot 0.013053400730041353 -7.1094185947573365
rtoes 4.548686800456061
lowerback 10.094692150761496 -1.1267942985782755 0.8725030075236695
upperback -0.38069444208195446 -1.2411392003193666 2.53536444593331
thorax -6.143604972034189 -0.5809661179950988 3.423148449587506
lowerneck -16.53095982580462 -3.271779792310349 -1.6111092627071155
upperneck 22.118890777259793 -4.380271816333359 0.5468561177736951
head 9.903865627149012 -2.079148008335082 -0.11006224552585522
lclavicle -2.7003079518414186e-15 -2.1517147062657186e-15
lhumerus -30.63880239291281 4.258669384844118 81.94792841218715
lradius 23.87953834753484
lwrist 12.181221420153001
lhand -29.01641611491895 17.47063815415109
lfingers 7.125020000000001
lthumb -2.129069145487142 47.983040810106026
rclavicle -2.7003079517541027e-15 -2.151714706205726e-15
rhumerus -33.39578979942197 -21.0917025456205 -75.8821096761712
rradius 26.10531016785351
rwrist 3.533950352143513
rhand -18.142053778554427 22.531836257014717
rfingers 7.125020000000001
rthumb 7.927189289321117 -5.78137275876901
166
root 1.2680881308705674 17.987474204226427 45.35785298350295 -2.8593422850694097 -0.7069711907638994 -2.844319779614635
lfemur 4.72442564165863 -2.5400542398305523 -18.600706136737095
ltibia 53.01159468018322
lfoot -16.568395091495827 -2.340524855847866
ltoes -20.316717410401502
rfemur -11.614351034577094 2.888788790955774 27.33303302220786
rtibia 15.460465684726646
rfoot 0.025500369694059444 -7.013382327087456
rtoes 4.160315139894371
lowerback 10.08109481829822 -1.0890861379210852 0.965835746635781
upperback -0.37680063169527706 -1.2080942371266734 2.489642710156474
thorax -6.087097976924765 -0.5547523591922736 3.4024824136134706
lowerneck -16.518852473213837 -3.2924850476090137 -1.6315944502674335
upperneck 22.065008969696184 -4.4050706497096845 0.575885763473645
head 9.882541297404757 -2.0890042176734824 -0.10268031012346288
lclavicle -2.7003079518413207e-15 -2.1517147062657655e-15
lhumerus -30.756748476599913 4.389811209448469 81.85717402023556
lradius 23.856302167403005
lwrist 12.105090085156439
lhand -28.92611922787824 17.195520148251727
lfingers 7.125020000000001
lthumb -2.064795065929858 47.74559040931465
rclavicle -2.7003079517509685e-15 -2.1517147062037413e-15
rhumerus -33.75464964447189 -21.226917203770288 -75.45151251629878
rradius 26.15068526480312
rwrist 3.3700740396132254
rhand -18.092730089904418 22.546439342974562
rfingers 7.125020000000001
rthumb 7.9492356476876465 -6.0157379067923245
167
root 1.2729667387826593 17.98923990698103 45.688107802448144 -2.908550512616061 -0.4269831230209277 -2.7422771975026112
lfemur 4.3099815590460935 -2.7145425780424874 -18.919281934628096
ltibia 53.279297789883216
lfoot -16.54242395578432 -2.7939755913013236
ltoes -19.708276960673402
rfemur -11.155085732977568 2.7359456702269886 27.11880603816238
rtibia 15.472946430468696
rfoot -0.16113183055430547 -7.029289681714284
rtoes 3.1930527380506035
lowerback 10.089269927000359 -1.0465975667161134 0.9883726383978891
upperback -0.3927627003702307 -1.1160673299319614 2.423909119978634
thorax -6.108031618787774 -0.49184334793184814 3.288092696125714
lowerneck -16.452978503154437 -3.301085282899934 -1.6461146912501174
upperneck 21.96003747658358 -4.425890059765764 0.627332296224532
head 9.822408660187667 -2.0972761350806 -0.07778613416481964
lclavicle -2.700307951838418e-15 -2.1517147062638238e-15
lhumerus -30.850347368941957 4.428101487776217 81.7540695656682
lradius 23.900353559605307
lwrist 11.513609276464106
lhand -29.010968511678705 17.45482394694058
lfingers 7.125020000000001
lthumb -2.127404506348992 48.0183438337307
rclavicle -2.700307951754693e-15 -2.1517147062062878e-15
rhumerus -33.85553487923059 -21.361368300664832 -75.27404132689298
rradius 26.186833493920027
rwrist 3.57148101532993
rhand -18.123950519879237 22.38385444823786
rfingers 7.125020000000001
rthumb 7.9158309348519955 -6.302965033846211
